<svg width="480" height="120" viewBox="0 0 480 120" xmlns="http://www.w3.org/2000/svg">
  <g transform="translate(10 10) scale(1.45)">
    <path d="M24 8 C31.7 8 38 14.3 38 22 C38 33 24 46 24 46 C24 46 10 33 10 22 C10 14.3 16.3 8 24 8 Z" fill="#fdba74"/>
    <circle cx="24" cy="21" r="5.5" fill="#fff"/>
    <path d="M42 16 C48.6 16 54 21.4 54 28 C54 37.5 42 54 42 54 C42 54 30 37.5 30 28 C30 21.4 35.4 16 42 16 Z" fill="#f97316"/>
    <circle cx="42" cy="27.5" r="5" fill="#fff"/>
  </g>
  <text x="100" y="64" font-family="-apple-system,Helvetica Neue,Arial,sans-serif" font-size="40" font-weight="700" letter-spacing="-0.5" fill="#111827">Trip</text>
  <text x="200" y="64" font-family="-apple-system,Helvetica Neue,Arial,sans-serif" font-size="40" font-weight="700" letter-spacing="-0.5" fill="#f97316">Unplanned</text>
  <text x="100" y="86" font-family="-apple-system,Helvetica Neue,Arial,sans-serif" font-size="12" font-weight="400" letter-spacing="0.3" fill="#9ca3af">Find your travel crew. Plan together.</text>
</svg>
